<svg width="24" height="24" viewBox="0 0 24 24" fill="none" xmlns="http://www.w3.org/2000/svg">
  <path d="M12 2C6.477 2 2 6.477 2 12C2 16.418 4.865 20.166 8.839 21.489C9.339 21.581 9.521 21.273 9.521 21.007C9.521 20.769 9.513 20.14 9.508 19.306C6.726 19.91 6.139 17.965 6.139 17.965C5.685 16.812 5.029 16.504 5.029 16.504C4.121 15.881 5.098 15.894 5.098 15.894C6.101 15.964 6.629 16.928 6.629 16.928C7.521 18.455 8.97 18.013 9.539 17.756C9.631 17.115 9.889 16.674 10.175 16.42C7.954 16.163 5.62 15.301 5.62 11.478C5.62 10.386 6.01 9.494 6.649 8.794C6.546 8.536 6.203 7.523 6.747 6.147C6.747 6.147 7.587 5.873 9.497 7.164C10.295 6.936 11.15 6.822 12 6.818C12.85 6.822 13.705 6.936 14.505 7.164C16.413 5.873 17.251 6.147 17.251 6.147C17.797 7.523 17.454 8.536 17.351 8.794C17.992 9.494 18.38 10.386 18.38 11.478C18.38 15.311 16.042 16.16 13.813 16.412C14.172 16.722 14.492 17.335 14.492 18.263C14.492 19.585 14.48 20.651 14.48 21.007C14.48 21.275 14.66 21.586 15.167 21.488C19.138 20.163 22 16.417 22 12C22 6.477 17.523 2 12 2Z" fill="white"/>
</svg>
