<svg width="100" height="100" viewBox="0 0 100 100" fill="none" xmlns="http://www.w3.org/2000/svg">
<path d="M2.1967 87.0495C-0.732233 89.9784 -0.732233 94.7272 2.1967 97.6561C5.12563 100.585 9.87437 100.585 12.8033 97.6561L7.5 92.3528L2.1967 87.0495ZM99.8528 7.5C99.8528 3.35786 96.495 -3.83593e-06 92.3528 -3.83593e-06L24.8528 -3.83593e-06C20.7107 -3.83593e-06 17.3528 3.35786 17.3528 7.5C17.3528 11.6421 20.7107 15 24.8528 15L84.8528 15L84.8528 75C84.8528 79.1421 88.2107 82.5 92.3528 82.5C96.495 82.5 99.8528 79.1421 99.8528 75L99.8528 7.5ZM7.5 92.3528L12.8033 97.6561L97.6561 12.8033L92.3528 7.5L87.0495 2.1967L2.1967 87.0495L7.5 92.3528Z" fill="white"/>
</svg>
