<svg width="1440" height="844" viewBox="0 0 1440 844" fill="none" xmlns="http://www.w3.org/2000/svg">
    <g clip-path="url(#clip0_2085_343)">
    <rect y="305" width="1440" height="539" fill="#101010"/>
    <g filter="url(#filter0_f_2085_343)">
    <rect x="-58" y="231" width="1612" height="161" fill="#101010"/>
    </g>
    <circle cx="702" cy="400" r="400" fill="#FF014F"/>
    <g filter="url(#filter1_f_2085_343)">
    <path d="M323 516.566C731 1042.07 1104 496.066 1074 516.566" stroke="#101010" stroke-opacity="0.8" stroke-width="100" stroke-linecap="round"/>
    </g>
    <g filter="url(#filter2_f_2085_343)">
    <path d="M323 516.566C731 1042.07 1104 496.066 1074 516.566" stroke="#101010" stroke-opacity="0.5" stroke-width="100" stroke-linecap="round"/>
    </g>
    <g filter="url(#filter3_f_2085_343)">
    <path d="M346 598.316C754.212 891.236 1080.1 586.889 1050.08 598.316" stroke="#101010" stroke-opacity="0.9" stroke-width="100" stroke-linecap="round"/>
    </g>
    <g filter="url(#filter4_f_2085_343)">
    <path d="M346 598.212C754.212 795.018 1080.1 590.535 1050.08 598.212" stroke="#101010" stroke-opacity="0.9" stroke-width="100" stroke-linecap="round"/>
    </g>
    <g filter="url(#filter5_f_2085_343)">
    <path d="M266 478.281C777.711 739.163 1186.22 468.104 1148.59 478.281" stroke="#101010" stroke-opacity="0.9" stroke-width="100" stroke-linecap="round"/>
    </g>
    <g filter="url(#filter6_f_2085_343)">
    <path d="M1046 320C1046 513.3 889.3 670 696 670C502.7 670 346 513.3 346 320H1046Z" fill="url(#paint0_linear_2085_343)"/>
    </g>
    <g filter="url(#filter7_f_2085_343)">
    <path d="M251 585.619C780.057 1160.02 1202.41 563.212 1163.51 585.619" stroke="#101010" stroke-opacity="0.9" stroke-width="100" stroke-linecap="round"/>
    </g>
    <g filter="url(#filter8_f_2085_343)">
    <path d="M251 620.38C780.057 972.799 1202.41 606.632 1163.51 620.38" stroke="#101010" stroke-opacity="0.9" stroke-width="100" stroke-linecap="round"/>
    </g>
    <g filter="url(#filter9_f_2085_343)">
    <path d="M323 585.397C760.123 953.836 1109.09 571.024 1076.94 585.397" stroke="#101010" stroke-opacity="0.9" stroke-width="100" stroke-linecap="round"/>
    </g>
    <g filter="url(#filter10_f_2085_343)">
    <path d="M236 567.392C765.057 931.254 1187.41 553.198 1148.51 567.392" stroke="#101010" stroke-opacity="0.9" stroke-width="100" stroke-linecap="round"/>
    </g>
    <g filter="url(#filter11_f_2085_343)">
    <path d="M236 567.392C765.057 931.254 1187.41 553.198 1148.51 567.392" stroke="#101010" stroke-opacity="0.9" stroke-width="100" stroke-linecap="round"/>
    </g>
    <g filter="url(#filter12_f_2085_343)">
    <path d="M391 412.427C758.738 808.326 1052.31 396.983 1025.27 412.427" stroke="#FF0250" stroke-width="100" stroke-linecap="round"/>
    </g>
    <g opacity="0.9" filter="url(#filter13_f_2085_343)">
    <path d="M1200 828C1200 625.311 984.201 461 718 461C451.799 461 236 625.311 236 828C236 1030.69 451.799 1195 718 1195C984.201 1195 1200 1030.69 1200 828Z" fill="url(#paint1_linear_2085_343)"/>
    </g>
    <g opacity="0.9" filter="url(#filter14_f_2085_343)">
    <path d="M1200 923.5C1200 668.068 984.201 461 718 461C451.799 461 236 668.068 236 923.5C236 1178.93 451.799 1386 718 1386C984.201 1386 1200 1178.93 1200 923.5Z" fill="url(#paint2_linear_2085_343)"/>
    </g>
    <g opacity="0.9" filter="url(#filter15_f_2085_343)">
    <path d="M1053 515C1053 363.122 900.105 240 711.5 240C522.895 240 370 363.122 370 515C370 666.878 522.895 790 711.5 790C900.105 790 1053 666.878 1053 515Z" fill="url(#paint3_linear_2085_343)" fill-opacity="0.7"/>
    </g>
    <g opacity="0.9" filter="url(#filter16_f_2085_343)">
    <path d="M1128.64 477C1291.1 592.007 1396 773.924 1396 978.665C1396 1326.44 1093.34 1608.36 720 1608.36C346.656 1608.36 44.0002 1326.44 44 978.665C44 785.108 137.752 611.95 285.262 496.438C361.398 581.975 518.15 640.665 699.164 640.665C893.587 640.665 1060.02 572.958 1128.64 477Z" fill="#101010" fill-opacity="0.25"/>
    </g>
    <g opacity="0.9" filter="url(#filter17_f_2085_343)">
    <path d="M1076.68 259.656C1293.72 378.723 1440 603.102 1440 860.286C1440 1242.07 1117.64 1551.57 720 1551.57C322.355 1551.57 4.46927e-05 1242.07 0 860.286C0 621.297 126.313 410.635 318.338 286.481C307.707 322.468 302 360.568 302 400C302 620.914 481.086 800 702 800C922.914 800 1102 620.914 1102 400C1102 350.617 1093.05 303.326 1076.68 259.656Z" fill="#101010" fill-opacity="0.6"/>
    </g>
    <g opacity="0.9" filter="url(#filter18_f_2085_343)">
    <path d="M1176 978.5C1176 723.068 960.201 516 694 516C427.799 516 212 723.068 212 978.5C212 1233.93 427.799 1441 694 1441C960.201 1441 1176 1233.93 1176 978.5Z" fill="url(#paint4_linear_2085_343)" fill-opacity="0.4"/>
    </g>
    <g filter="url(#filter19_f_2085_343)">
    <ellipse cx="702.5" cy="480" rx="373.5" ry="211" fill="#FF014F" fill-opacity="0.3"/>
    </g>
    </g>
    <defs>
    <filter id="filter0_f_2085_343" x="-108" y="181" width="1712" height="261" filterUnits="userSpaceOnUse" color-interpolation-filters="sRGB">
    <feFlood flood-opacity="0" result="BackgroundImageFix"/>
    <feBlend mode="normal" in="SourceGraphic" in2="BackgroundImageFix" result="shape"/>
    <feGaussianBlur stdDeviation="25" result="effect1_foregroundBlur_2085_343"/>
    </filter>
    <filter id="filter1_f_2085_343" x="172.998" y="366.003" width="1052.69" height="529.639" filterUnits="userSpaceOnUse" color-interpolation-filters="sRGB">
    <feFlood flood-opacity="0" result="BackgroundImageFix"/>
    <feBlend mode="normal" in="SourceGraphic" in2="BackgroundImageFix" result="shape"/>
    <feGaussianBlur stdDeviation="50" result="effect1_foregroundBlur_2085_343"/>
    </filter>
    <filter id="filter2_f_2085_343" x="-27.002" y="166.003" width="1452.69" height="929.639" filterUnits="userSpaceOnUse" color-interpolation-filters="sRGB">
    <feFlood flood-opacity="0" result="BackgroundImageFix"/>
    <feBlend mode="normal" in="SourceGraphic" in2="BackgroundImageFix" result="shape"/>
    <feGaussianBlur stdDeviation="150" result="effect1_foregroundBlur_2085_343"/>
    </filter>
    <filter id="filter3_f_2085_343" x="95.9961" y="348.005" width="1205.96" height="627.983" filterUnits="userSpaceOnUse" color-interpolation-filters="sRGB">
    <feFlood flood-opacity="0" result="BackgroundImageFix"/>
    <feBlend mode="normal" in="SourceGraphic" in2="BackgroundImageFix" result="shape"/>
    <feGaussianBlur stdDeviation="100" result="effect1_foregroundBlur_2085_343"/>
    </filter>
    <filter id="filter4_f_2085_343" x="95.9883" y="347.984" width="1206.01" height="586.012" filterUnits="userSpaceOnUse" color-interpolation-filters="sRGB">
    <feFlood flood-opacity="0" result="BackgroundImageFix"/>
    <feBlend mode="normal" in="SourceGraphic" in2="BackgroundImageFix" result="shape"/>
    <feGaussianBlur stdDeviation="100" result="effect1_foregroundBlur_2085_343"/>
    </filter>
    <filter id="filter5_f_2085_343" x="-34.0107" y="177.986" width="1485.01" height="714.009" filterUnits="userSpaceOnUse" color-interpolation-filters="sRGB">
    <feFlood flood-opacity="0" result="BackgroundImageFix"/>
    <feBlend mode="normal" in="SourceGraphic" in2="BackgroundImageFix" result="shape"/>
    <feGaussianBlur stdDeviation="125" result="effect1_foregroundBlur_2085_343"/>
    </filter>
    <filter id="filter6_f_2085_343" x="96" y="70" width="1200" height="850" filterUnits="userSpaceOnUse" color-interpolation-filters="sRGB">
    <feFlood flood-opacity="0" result="BackgroundImageFix"/>
    <feBlend mode="normal" in="SourceGraphic" in2="BackgroundImageFix" result="shape"/>
    <feGaussianBlur stdDeviation="125" result="effect1_foregroundBlur_2085_343"/>
    </filter>
    <filter id="filter7_f_2085_343" x="1" y="335.046" width="1415" height="750.959" filterUnits="userSpaceOnUse" color-interpolation-filters="sRGB">
    <feFlood flood-opacity="0" result="BackgroundImageFix"/>
    <feBlend mode="normal" in="SourceGraphic" in2="BackgroundImageFix" result="shape"/>
    <feGaussianBlur stdDeviation="100" result="effect1_foregroundBlur_2085_343"/>
    </filter>
    <filter id="filter8_f_2085_343" x="0.995117" y="369.999" width="1414.95" height="653.991" filterUnits="userSpaceOnUse" color-interpolation-filters="sRGB">
    <feFlood flood-opacity="0" result="BackgroundImageFix"/>
    <feBlend mode="normal" in="SourceGraphic" in2="BackgroundImageFix" result="shape"/>
    <feGaussianBlur stdDeviation="100" result="effect1_foregroundBlur_2085_343"/>
    </filter>
    <filter id="filter9_f_2085_343" x="247.999" y="510.021" width="905.982" height="310.966" filterUnits="userSpaceOnUse" color-interpolation-filters="sRGB">
    <feFlood flood-opacity="0" result="BackgroundImageFix"/>
    <feBlend mode="normal" in="SourceGraphic" in2="BackgroundImageFix" result="shape"/>
    <feGaussianBlur stdDeviation="12.5" result="effect1_foregroundBlur_2085_343"/>
    </filter>
    <filter id="filter10_f_2085_343" x="-14.0049" y="317.002" width="1414.96" height="658.987" filterUnits="userSpaceOnUse" color-interpolation-filters="sRGB">
    <feFlood flood-opacity="0" result="BackgroundImageFix"/>
    <feBlend mode="normal" in="SourceGraphic" in2="BackgroundImageFix" result="shape"/>
    <feGaussianBlur stdDeviation="100" result="effect1_foregroundBlur_2085_343"/>
    </filter>
    <filter id="filter11_f_2085_343" x="-14.0049" y="317.002" width="1414.96" height="658.987" filterUnits="userSpaceOnUse" color-interpolation-filters="sRGB">
    <feFlood flood-opacity="0" result="BackgroundImageFix"/>
    <feBlend mode="normal" in="SourceGraphic" in2="BackgroundImageFix" result="shape"/>
    <feGaussianBlur stdDeviation="100" result="effect1_foregroundBlur_2085_343"/>
    </filter>
    <filter id="filter12_f_2085_343" x="241" y="262.046" width="936.004" height="472.959" filterUnits="userSpaceOnUse" color-interpolation-filters="sRGB">
    <feFlood flood-opacity="0" result="BackgroundImageFix"/>
    <feBlend mode="normal" in="SourceGraphic" in2="BackgroundImageFix" result="shape"/>
    <feGaussianBlur stdDeviation="50" result="effect1_foregroundBlur_2085_343"/>
    </filter>
    <filter id="filter13_f_2085_343" x="-164" y="61" width="1764" height="1534" filterUnits="userSpaceOnUse" color-interpolation-filters="sRGB">
    <feFlood flood-opacity="0" result="BackgroundImageFix"/>
    <feBlend mode="normal" in="SourceGraphic" in2="BackgroundImageFix" result="shape"/>
    <feGaussianBlur stdDeviation="200" result="effect1_foregroundBlur_2085_343"/>
    </filter>
    <filter id="filter14_f_2085_343" x="-164" y="61" width="1764" height="1725" filterUnits="userSpaceOnUse" color-interpolation-filters="sRGB">
    <feFlood flood-opacity="0" result="BackgroundImageFix"/>
    <feBlend mode="normal" in="SourceGraphic" in2="BackgroundImageFix" result="shape"/>
    <feGaussianBlur stdDeviation="200" result="effect1_foregroundBlur_2085_343"/>
    </filter>
    <filter id="filter15_f_2085_343" x="170" y="40" width="1083" height="950" filterUnits="userSpaceOnUse" color-interpolation-filters="sRGB">
    <feFlood flood-opacity="0" result="BackgroundImageFix"/>
    <feBlend mode="normal" in="SourceGraphic" in2="BackgroundImageFix" result="shape"/>
    <feGaussianBlur stdDeviation="100" result="effect1_foregroundBlur_2085_343"/>
    </filter>
    <filter id="filter16_f_2085_343" x="-56" y="377" width="1552" height="1331.36" filterUnits="userSpaceOnUse" color-interpolation-filters="sRGB">
    <feFlood flood-opacity="0" result="BackgroundImageFix"/>
    <feBlend mode="normal" in="SourceGraphic" in2="BackgroundImageFix" result="shape"/>
    <feGaussianBlur stdDeviation="50" result="effect1_foregroundBlur_2085_343"/>
    </filter>
    <filter id="filter17_f_2085_343" x="-150" y="109.656" width="1740" height="1591.92" filterUnits="userSpaceOnUse" color-interpolation-filters="sRGB">
    <feFlood flood-opacity="0" result="BackgroundImageFix"/>
    <feBlend mode="normal" in="SourceGraphic" in2="BackgroundImageFix" result="shape"/>
    <feGaussianBlur stdDeviation="75" result="effect1_foregroundBlur_2085_343"/>
    </filter>
    <filter id="filter18_f_2085_343" x="-188" y="116" width="1764" height="1725" filterUnits="userSpaceOnUse" color-interpolation-filters="sRGB">
    <feFlood flood-opacity="0" result="BackgroundImageFix"/>
    <feBlend mode="normal" in="SourceGraphic" in2="BackgroundImageFix" result="shape"/>
    <feGaussianBlur stdDeviation="200" result="effect1_foregroundBlur_2085_343"/>
    </filter>
    <filter id="filter19_f_2085_343" x="229" y="169" width="947" height="622" filterUnits="userSpaceOnUse" color-interpolation-filters="sRGB">
    <feFlood flood-opacity="0" result="BackgroundImageFix"/>
    <feBlend mode="normal" in="SourceGraphic" in2="BackgroundImageFix" result="shape"/>
    <feGaussianBlur stdDeviation="50" result="effect1_foregroundBlur_2085_343"/>
    </filter>
    <linearGradient id="paint0_linear_2085_343" x1="696" y1="-30" x2="696" y2="670" gradientUnits="userSpaceOnUse">
    <stop stop-color="#FF014F"/>
    </linearGradient>
    <linearGradient id="paint1_linear_2085_343" x1="718" y1="1195" x2="718" y2="461" gradientUnits="userSpaceOnUse">
    <stop stop-color="#FF014F"/>
    </linearGradient>
    <linearGradient id="paint2_linear_2085_343" x1="718" y1="1386" x2="718" y2="461" gradientUnits="userSpaceOnUse">
    <stop stop-color="#FF014F"/>
    </linearGradient>
    <linearGradient id="paint3_linear_2085_343" x1="711.5" y1="790" x2="711.5" y2="240" gradientUnits="userSpaceOnUse">
    <stop stop-color="#FF014F"/>
    </linearGradient>
    <linearGradient id="paint4_linear_2085_343" x1="694" y1="1441" x2="694" y2="516" gradientUnits="userSpaceOnUse">
    <stop stop-color="#FF014F"/>
    </linearGradient>
    <clipPath id="clip0_2085_343">
    <rect width="1440" height="844" fill="white"/>
    </clipPath>
    </defs>
</svg>
