<svg width="430" height="428" viewBox="0 0 430 428" fill="none" xmlns="http://www.w3.org/2000/svg">
<mask id="mask0_2008_775" style="mask-type:luminance" maskUnits="userSpaceOnUse" x="0" y="0" width="430" height="428">
<path d="M429.333 0H0V428H429.333V0Z" fill="white"/>
</mask>
<g mask="url(#mask0_2008_775)">
<path d="M162.717 373.559C162.624 373.34 162.603 373.09 162.655 372.809C162.697 372.533 162.853 372.303 163.113 372.121C163.363 371.928 163.65 371.866 163.967 371.934L177.197 374.392C177.978 374.548 178.54 374.934 178.884 375.559L185.759 388.225L187.717 377.788C187.79 377.402 187.983 377.1 188.301 376.892C188.624 376.673 188.967 376.595 189.342 376.663L199.905 378.621C200.296 378.704 200.603 378.908 200.822 379.225C201.046 379.548 201.124 379.897 201.051 380.288L194.863 413.392C194.796 413.777 194.603 414.085 194.28 414.309C193.962 414.527 193.608 414.6 193.217 414.517L182.655 412.559C182.28 412.486 181.983 412.288 181.759 411.954C181.54 411.631 181.462 411.277 181.53 410.892L183.322 401.246L173.342 409.913C172.707 410.397 172.009 410.569 171.259 410.434L158.905 408.121C158.603 408.064 158.358 407.902 158.176 407.642C157.999 407.376 157.936 407.1 157.988 406.809C158.03 406.527 158.155 406.298 158.363 406.121L173.301 393.559L162.717 373.559Z" fill="#FF014F"/>
<path d="M122.119 392.847L113.452 388.847C113.093 388.691 112.848 388.43 112.723 388.055C112.588 387.68 112.593 387.316 112.744 386.972L126.827 356.368C126.983 356.008 127.244 355.764 127.619 355.639C127.983 355.503 128.343 355.508 128.702 355.659L137.285 359.618C137.634 359.774 137.879 360.034 138.015 360.409C138.14 360.774 138.129 361.133 137.973 361.493L131.223 376.18L137.806 370.93C138.181 370.654 138.608 370.503 139.077 370.472C139.551 370.446 139.973 370.514 140.348 370.68L143.556 372.159C144.114 372.409 144.494 372.748 144.702 373.18C144.91 373.623 145.015 373.977 145.015 374.243L145.348 382.659L152.098 367.972C152.254 367.613 152.515 367.368 152.89 367.243C153.254 367.107 153.614 367.118 153.973 367.284L162.556 371.222C162.89 371.378 163.129 371.639 163.265 372.014C163.39 372.378 163.379 372.732 163.223 373.097L149.14 403.701C148.989 404.045 148.733 404.29 148.369 404.43C147.994 404.566 147.64 404.56 147.306 404.409L138.598 400.409C137.723 400.003 137.244 399.269 137.16 398.201L136.181 383.972L124.744 392.493C123.884 393.128 123.009 393.248 122.119 392.847Z" fill="#FF014F"/>
<path d="M118.856 348.323L126.543 354.49C126.793 354.687 126.934 354.948 126.96 355.281C126.991 355.604 126.939 355.844 126.814 356.01C126.689 356.161 126.579 356.266 126.481 356.323L96.7514 375.156C95.7826 375.865 94.8087 375.823 93.8347 375.031L82.5222 365.948C81.5534 365.167 81.3087 364.229 81.793 363.135L93.8139 330.052C93.8451 329.943 93.918 329.812 94.043 329.656C94.168 329.49 94.3972 329.396 94.7305 329.365C95.0534 329.323 95.3295 329.396 95.5639 329.573L103.272 335.76C104.137 336.469 104.371 337.422 103.981 338.615L102.71 342.281L112.626 350.26L115.918 348.219C117.017 347.594 117.996 347.63 118.856 348.323ZM98.418 351.885L94.4805 362.656L104.168 356.531L98.418 351.885Z" fill="#FF014F"/>
<path d="M63.9526 348.494L53.9318 335.223C51.6297 332.165 50.0308 329.212 49.1401 326.348C48.2391 323.488 48.2235 320.65 49.0985 317.827C49.9631 314.994 51.8224 312.494 54.6818 310.327L58.911 307.139C63.3589 303.78 67.7235 302.822 72.0151 304.264C75.9318 305.639 79.6193 308.619 83.0776 313.202L93.0985 326.473C93.3381 326.796 93.4266 327.15 93.3693 327.535C93.3172 327.91 93.1349 328.218 92.8276 328.452L65.9526 348.764C65.6349 348.999 65.2808 349.087 64.8901 349.035C64.5047 348.994 64.1922 348.811 63.9526 348.494ZM64.7651 332.681L77.6818 322.91L74.8276 319.119C73.8276 317.817 72.7339 317.014 71.536 316.723C70.3276 316.431 69.1506 316.718 67.9943 317.577L62.2651 321.91C61.1297 322.785 60.536 323.843 60.4943 325.077C60.4422 326.317 60.911 327.587 61.911 328.889L64.7651 332.681Z" fill="#FF014F"/>
<path d="M40.1628 284.448C38.5691 278.938 38.1211 274.714 38.8295 271.782C39.5274 268.855 41.5274 266.693 44.8295 265.303C48.1211 263.901 51.4753 264.386 54.892 266.761C58.3086 269.125 61.1576 272.985 63.4336 278.344C65.6993 283.693 66.4753 288.261 65.767 292.053C65.0482 295.844 63.2461 298.355 60.3711 299.573C59.6784 299.875 59.1732 299.662 58.8503 298.928L54.6836 289.094C54.392 288.417 54.3659 287.776 54.6003 287.178C55.0899 285.928 54.8659 284.193 53.9336 281.969C52.642 278.928 51.5274 277.605 50.5795 277.99C50.0118 278.24 49.7618 278.917 49.8295 280.011C49.9024 281.11 50.3816 283.157 51.267 286.157C54.017 295.688 52.4649 301.688 46.6003 304.178C43.3086 305.563 40.0326 305.23 36.767 303.178C33.4909 301.136 30.8191 297.672 28.7461 292.782C26.6784 287.896 26.0743 283.5 26.9336 279.594C27.7826 275.678 29.392 273.214 31.767 272.198C32.1003 272.063 32.4076 272.063 32.6836 272.198C32.9493 272.323 33.1576 272.568 33.3086 272.928L37.6836 283.24C37.9336 283.823 37.9649 284.401 37.767 284.969C37.3659 286.042 37.4909 287.344 38.142 288.886C39.0482 291.026 39.9545 291.901 40.8711 291.511C41.3451 291.318 41.5378 290.75 41.4545 289.803C41.3711 288.844 40.9441 287.063 40.1628 284.448Z" fill="#FF014F"/>
<path d="M18.1204 261.266L15.5787 244.829C14.985 241.053 14.9693 237.698 15.537 234.766C16.0943 231.823 17.4277 229.308 19.537 227.224C21.6516 225.141 24.4745 223.823 28.0162 223.266L33.2662 222.454C38.7662 221.594 43.0579 222.818 46.1412 226.12C48.9329 229.178 50.7766 233.547 51.662 239.224L54.2037 255.662C54.2766 256.053 54.1933 256.407 53.9537 256.724C53.7193 257.032 53.412 257.214 53.037 257.266L19.7454 262.454C19.36 262.506 19.011 262.417 18.7037 262.183C18.386 261.959 18.1933 261.651 18.1204 261.266ZM26.3079 247.704L42.3079 245.224L41.5787 240.537C41.3287 238.912 40.7402 237.693 39.8079 236.87C38.8808 236.037 37.7037 235.735 36.287 235.954L29.1829 237.058C27.7818 237.282 26.7662 237.928 26.1412 238.995C25.5162 240.053 25.3287 241.391 25.5787 243.016L26.3079 247.704Z" fill="#FF014F"/>
<path d="M39.8956 201.564L41.8122 180.835C41.8435 180.449 42.0101 180.126 42.3122 179.876C42.6195 179.626 42.9581 179.517 43.3331 179.543L50.6456 180.231C51.031 180.262 51.3539 180.429 51.6039 180.731C51.8539 181.038 51.9633 181.387 51.9372 181.772L48.8956 214.585C48.8539 214.975 48.6768 215.293 48.3747 215.543C48.0831 215.793 47.7445 215.908 47.3539 215.876L13.8122 212.772C13.4268 212.731 13.1039 212.564 12.8539 212.272C12.5935 211.97 12.4789 211.621 12.5206 211.231L15.4997 178.939C15.5414 178.554 15.7185 178.231 16.0206 177.981C16.3279 177.72 16.6768 177.606 17.0622 177.647L24.3956 178.314C24.7706 178.356 25.0831 178.533 25.3331 178.835C25.5726 179.142 25.6664 179.491 25.6247 179.876L23.7706 200.085L27.0622 200.376L28.6664 183.001C28.6976 182.626 28.8643 182.324 29.1664 182.085C29.4737 181.835 29.8122 181.725 30.1872 181.751L36.9372 182.376C37.3279 182.418 37.6456 182.595 37.8956 182.897C38.1456 183.189 38.2601 183.522 38.2289 183.897L36.6247 201.272L39.8956 201.564Z" fill="#FF014F"/>
<path d="M27.3726 139.027L31.0184 128.652C31.133 128.35 31.3309 128.132 31.6226 128.007C31.9038 127.871 32.1382 127.835 32.3309 127.902C32.5288 127.975 32.6851 128.043 32.8101 128.111L60.2059 150.465C61.1642 151.231 61.4455 152.168 61.0601 153.277L57.0184 164.736C56.6434 165.819 55.8986 166.371 54.7892 166.382L19.2267 166.694C19.0913 166.694 18.9246 166.663 18.7267 166.59C18.534 166.522 18.3673 166.34 18.2267 166.048C18.0913 165.746 18.0705 165.454 18.1642 165.173L21.8309 154.777C22.0392 154.184 22.383 153.757 22.8517 153.507C23.3257 153.257 23.784 153.132 24.2267 153.132L45.0392 154.111L28.2059 141.819C27.2371 141.142 26.9559 140.21 27.3726 139.027Z" fill="#FF014F"/>
<path d="M59.8086 118.159C57.642 118.607 55.6316 118.211 53.767 116.971C51.9076 115.737 50.7618 114.034 50.3295 111.867C49.8868 109.701 50.2826 107.695 51.517 105.846C52.7409 104.003 54.4336 102.857 56.6003 102.409C58.767 101.951 60.7826 102.341 62.642 103.576C64.5066 104.815 65.6472 106.523 66.0795 108.701C66.5222 110.867 66.1263 112.878 64.892 114.721C63.6732 116.57 61.9753 117.716 59.8086 118.159Z" fill="#FF014F"/>
<path d="M110.366 70.1498C115.517 75.8061 114.471 81.9363 107.221 88.5457L91.3456 103.025C91.0643 103.29 90.7258 103.41 90.3247 103.379C89.9341 103.353 89.606 103.202 89.3456 102.921L66.6581 78.0248C66.3977 77.7332 66.2779 77.3998 66.3039 77.0248C66.3195 76.6394 66.4654 76.3113 66.7414 76.0457L82.2414 61.9207C85.8977 58.5873 89.1893 56.7905 92.1372 56.5248C95.0799 56.2644 97.7727 57.4728 100.221 60.1498L100.304 60.254C101.429 61.4936 102.054 62.8582 102.179 64.3582C102.304 65.8477 102.106 67.0353 101.596 67.9207C102.887 67.3113 104.366 67.2019 106.033 67.5873C107.7 67.9623 109.142 68.8165 110.366 70.1498ZM90.8456 84.4207L94.2831 88.2123L99.8872 83.1082C100.481 82.5665 100.747 81.9727 100.679 81.3165C100.606 80.6498 100.346 80.0665 99.8872 79.5665L99.8664 79.5457C99.4185 79.0457 98.8716 78.7644 98.2206 78.6915C97.5799 78.6238 96.9914 78.8321 96.4497 79.3165L90.8456 84.4207ZM90.8039 71.6707C90.731 71.0457 90.481 70.504 90.0539 70.0457C89.6372 69.5769 89.1372 69.2957 88.5539 69.2123C87.981 69.1186 87.4393 69.3061 86.9289 69.7748L81.7622 74.4832L84.9706 78.004L90.1372 73.2957C90.6477 72.8269 90.8716 72.2853 90.8039 71.6707Z" fill="#FF014F"/>
<path d="M126.413 32.5936L136.017 27.4269C136.293 27.2758 136.584 27.2498 136.892 27.3436C137.194 27.4425 137.402 27.604 137.517 27.8227C137.642 28.0311 137.704 28.2498 137.704 28.4686L136.413 53.8644L141.913 64.0936C142.09 64.4425 142.121 64.8019 141.996 65.1769C141.881 65.5519 141.668 65.8331 141.35 66.0102L131.538 71.2602C131.204 71.4425 130.85 71.479 130.475 71.3644C130.1 71.255 129.819 71.0258 129.642 70.6769L124.142 60.4477L102.308 47.4894C102.131 47.354 101.985 47.1769 101.871 46.9686C101.746 46.7498 101.735 46.4842 101.829 46.1769C101.913 45.8748 102.095 45.6456 102.371 45.4894L112.079 40.2811C112.928 39.8227 113.741 39.8383 114.517 40.3227L124.621 46.6561L125.079 34.7602C125.147 33.7498 125.59 33.0258 126.413 32.5936Z" fill="#FF014F"/>
<path d="M164.578 38.9436C162.672 37.8082 161.453 36.1624 160.911 34.0061C160.37 31.8395 160.667 29.8082 161.807 27.902C162.943 26.0009 164.589 24.777 166.745 24.2353C168.896 23.6936 170.922 23.9957 172.828 25.1311C174.729 26.2718 175.953 27.9228 176.495 30.0895C177.036 32.2457 176.734 34.2718 175.599 36.1728C174.458 38.0634 172.812 39.277 170.661 39.8186C168.505 40.3603 166.479 40.0686 164.578 38.9436Z" fill="#FF014F"/>
<path d="M235.53 47.1828C235.665 47.3912 235.738 47.636 235.738 47.912C235.738 48.1932 235.624 48.4485 235.405 48.6828C235.181 48.9068 234.91 49.0162 234.592 49.0162H221.134C220.342 49.0162 219.717 48.7401 219.259 48.1828L210.176 36.9745V47.5995C210.176 47.9901 210.035 48.3235 209.759 48.5995C209.478 48.8807 209.155 49.0162 208.78 49.0162H198.03C197.639 49.0162 197.306 48.8807 197.03 48.5995C196.749 48.3235 196.613 47.9901 196.613 47.5995V13.912C196.613 13.5266 196.749 13.1932 197.03 12.912C197.306 12.636 197.639 12.4953 198.03 12.4953H208.78C209.155 12.4953 209.478 12.636 209.759 12.912C210.035 13.1932 210.176 13.5266 210.176 13.912V23.7245L218.426 13.3912C218.952 12.7974 219.598 12.4953 220.363 12.4953H232.926C233.243 12.4953 233.514 12.6151 233.738 12.8495C233.957 13.0735 234.072 13.3287 234.072 13.6203C234.072 13.912 233.988 14.162 233.822 14.3703L221.447 29.4537L235.53 47.1828Z" fill="#FF014F"/>
<path d="M245.037 51.5845L235.475 49.1887C235.167 49.1054 234.933 48.9231 234.766 48.647C234.61 48.371 234.558 48.1366 234.6 47.9387C234.652 47.7304 234.709 47.5845 234.766 47.5012L253.933 17.9387C254.527 16.9127 255.433 16.5533 256.641 16.8554L270.704 20.3762C271.912 20.6835 272.522 21.4335 272.537 22.6262L275.433 57.7304C275.443 57.8397 275.423 57.9908 275.371 58.1887C275.329 58.397 275.167 58.5845 274.891 58.7512C274.61 58.9179 274.329 58.9595 274.037 58.8762L264.454 56.4804C263.381 56.1991 262.772 55.4387 262.621 54.1887L262.225 50.3345L249.891 47.2304L247.766 50.4595C247.027 51.4856 246.121 51.8606 245.037 51.5845ZM262.141 39.8137L261.225 28.3762L254.975 38.0012L262.141 39.8137Z" fill="#FF014F"/>
<path d="M319.141 53.6956L310.828 49.2373L303.683 62.5706L311.995 67.0289C312.339 67.206 312.568 67.4873 312.683 67.8623C312.792 68.2373 312.755 68.5914 312.578 68.9248L308.849 75.8623C308.667 76.206 308.391 76.4352 308.016 76.5498C307.641 76.6591 307.276 76.6227 306.933 76.4456L277.787 60.7998C277.453 60.6175 277.229 60.3414 277.12 59.9664C277.005 59.5914 277.042 59.2269 277.224 58.8831L280.953 51.9456C281.13 51.6123 281.412 51.3935 281.787 51.2789C282.162 51.1696 282.516 51.206 282.849 51.3831L291.266 55.9039L298.412 42.5706L289.995 38.0498C289.662 37.8727 289.438 37.5914 289.328 37.2164C289.229 36.831 289.266 36.4768 289.433 36.1539L293.162 29.2164C293.339 28.8727 293.62 28.6435 293.995 28.5289C294.37 28.4196 294.724 28.456 295.058 28.6331L324.203 44.2789C324.547 44.4612 324.776 44.7373 324.891 45.1123C325 45.4873 324.964 45.8519 324.787 46.1956L321.058 53.1331C320.891 53.456 320.61 53.6748 320.224 53.7998C319.849 53.9144 319.485 53.8779 319.141 53.6956Z" fill="#FF014F"/>
<path d="M354.152 89.2308L349.882 93.9183C346.434 97.6943 342.569 99.4235 338.277 99.1058L337.652 105.564C337.486 106.09 337.204 106.377 336.819 106.418C336.428 106.46 336.116 106.366 335.882 106.147L328.527 99.4391C327.694 98.6891 327.361 97.7985 327.527 96.7725L327.673 94.585C326.783 93.9027 325.902 93.1683 325.027 92.3766C322.194 89.7933 320.074 87.1787 318.673 84.5433C317.283 81.9027 316.746 79.111 317.069 76.1683C317.402 73.2256 318.798 70.3975 321.257 67.6891L325.402 63.1475C327.861 60.4548 330.538 58.8089 333.444 58.21C336.361 57.6006 339.194 57.8714 341.944 59.0225C344.704 60.1787 347.496 62.0433 350.319 64.6266C353.152 67.1995 355.267 69.8037 356.673 72.4391C358.074 75.0798 358.611 77.8662 358.277 80.8141C357.944 83.7725 356.569 86.5745 354.152 89.2308ZM336.569 71.8141L330.923 77.9808C329.965 79.0485 329.579 80.1891 329.777 81.3975C329.97 82.6058 330.663 83.7568 331.861 84.8558C333.069 85.9495 334.288 86.5277 335.527 86.585C336.762 86.6527 337.861 86.1579 338.819 85.1058L344.382 79.0225C345.34 77.9652 345.725 76.8298 345.548 75.6058C345.366 74.387 344.673 73.2256 343.465 72.1266C342.267 71.0329 341.053 70.4495 339.819 70.3766C338.595 70.2933 337.512 70.7725 336.569 71.8141Z" fill="#FF014F"/>
<path d="M362.155 132.545C358.155 131.097 354.541 127.941 351.322 123.066C348.098 118.201 346.598 113.639 346.822 109.378C347.041 105.113 349.405 101.493 353.905 98.5033L370.509 87.5033C370.827 87.295 371.176 87.2325 371.551 87.3158C371.937 87.3887 372.239 87.5866 372.447 87.92L378.468 97.0033C378.687 97.3262 378.759 97.6804 378.676 98.0658C378.603 98.4408 378.411 98.7325 378.093 98.9408L360.78 110.42C359.598 111.196 358.952 112.196 358.843 113.42C358.728 114.639 359.124 115.93 360.03 117.295C360.931 118.654 361.968 119.524 363.134 119.899C364.301 120.274 365.473 120.071 366.655 119.295L383.968 107.816C384.286 107.607 384.634 107.545 385.009 107.628C385.395 107.712 385.697 107.904 385.905 108.212L391.926 117.316C392.134 117.634 392.197 117.982 392.114 118.357C392.041 118.743 391.848 119.045 391.53 119.253L374.926 130.253C370.426 133.238 366.166 134.003 362.155 132.545Z" fill="#FF014F"/>
<path d="M378.079 151.952L384.995 171.598C385.12 171.958 385.099 172.312 384.933 172.661C384.766 173.02 384.501 173.265 384.141 173.39L377.204 175.827C376.839 175.963 376.48 175.942 376.12 175.765C375.771 175.598 375.537 175.333 375.412 174.973L364.454 143.869C364.329 143.504 364.349 143.145 364.516 142.786C364.693 142.437 364.964 142.192 365.329 142.056L397.099 130.869C397.474 130.744 397.834 130.775 398.183 130.952C398.527 131.119 398.766 131.385 398.891 131.744L409.683 162.348C409.808 162.708 409.787 163.062 409.62 163.411C409.454 163.77 409.183 164.015 408.808 164.14L401.87 166.598C401.521 166.723 401.167 166.692 400.808 166.515C400.459 166.348 400.224 166.083 400.099 165.723L393.349 146.577L390.245 147.661L396.037 164.119C396.162 164.463 396.131 164.817 395.954 165.181C395.787 165.541 395.521 165.786 395.162 165.911L388.766 168.161C388.402 168.286 388.042 168.254 387.683 168.077C387.334 167.911 387.099 167.65 386.974 167.306L381.183 150.848L378.079 151.952Z" fill="#FF014F"/>
<path d="M394.787 191.367C396.204 189.669 398.022 188.722 400.246 188.513C402.464 188.305 404.423 188.909 406.121 190.326C407.829 191.742 408.787 193.555 408.996 195.763C409.204 197.982 408.6 199.94 407.183 201.638C405.766 203.347 403.943 204.305 401.725 204.513C399.501 204.722 397.542 204.107 395.85 202.68C394.152 201.263 393.204 199.44 392.996 197.222C392.787 195.013 393.381 193.06 394.787 191.367Z" fill="#FF014F"/>
<path d="M399.749 245.491C398.207 251.017 396.363 254.835 394.228 256.949C392.087 259.074 389.249 259.856 385.707 259.304C382.166 258.746 379.572 256.559 377.916 252.741C376.249 248.934 375.869 244.158 376.77 238.408C377.66 232.668 379.41 228.371 382.02 225.512C384.629 222.663 387.478 221.481 390.561 221.97C391.311 222.08 391.624 222.533 391.499 223.324L389.853 233.887C389.738 234.621 389.436 235.179 388.936 235.554C387.853 236.371 387.124 237.96 386.749 240.324C386.233 243.6 386.483 245.314 387.499 245.47C388.108 245.564 388.676 245.121 389.207 244.137C389.733 243.163 390.405 241.179 391.228 238.179C393.905 228.637 398.395 224.356 404.686 225.345C408.228 225.887 410.843 227.887 412.541 231.345C414.233 234.814 414.671 239.168 413.853 244.408C413.03 249.658 411.228 253.72 408.436 256.595C405.655 259.47 402.999 260.71 400.457 260.324C400.093 260.267 399.832 260.106 399.666 259.845C399.499 259.595 399.442 259.272 399.499 258.887L401.228 247.824C401.322 247.199 401.608 246.689 402.082 246.304C402.983 245.595 403.567 244.418 403.832 242.783C404.176 240.475 403.863 239.246 402.895 239.095C402.379 239.022 401.9 239.413 401.457 240.262C401.025 241.106 400.457 242.85 399.749 245.491Z" fill="#FF014F"/>
<path d="M378.252 304.242L372.419 301.763C369.117 300.373 366.7 298.409 365.169 295.867C363.627 293.326 362.95 290.56 363.127 287.576C363.294 284.586 364.127 281.331 365.627 277.805C367.117 274.289 368.872 271.43 370.898 269.222C372.929 267.024 375.382 265.597 378.273 264.93C381.158 264.263 384.283 264.638 387.648 266.055L393.315 268.451C398.148 270.503 401.065 273.701 402.065 278.034C403.065 282.367 402.445 287.17 400.21 292.451C397.971 297.742 394.945 301.534 391.127 303.826C387.32 306.128 383.028 306.269 378.252 304.242ZM388.835 281.867L381.127 278.617C379.82 278.045 378.627 278.055 377.544 278.638C376.471 279.232 375.617 280.284 374.981 281.784C374.346 283.284 374.2 284.623 374.544 285.805C374.888 286.998 375.721 287.873 377.044 288.43L384.627 291.638C385.945 292.19 387.153 292.18 388.252 291.597C389.346 291.024 390.216 289.992 390.856 288.492C391.492 286.992 391.638 285.649 391.294 284.472C390.96 283.289 390.138 282.42 388.835 281.867Z" fill="#FF014F"/>
<path d="M340.088 326.157C340.129 321.892 341.916 317.428 345.442 312.762C348.958 308.105 352.765 305.178 356.859 303.97C360.952 302.772 365.155 303.803 369.463 307.053L385.338 319.053C385.655 319.288 385.838 319.6 385.879 319.991C385.932 320.376 385.848 320.725 385.629 321.032L379.046 329.72C378.807 330.038 378.494 330.22 378.109 330.262C377.718 330.314 377.364 330.225 377.046 329.991L360.504 317.47C359.364 316.605 358.208 316.329 357.025 316.637C355.833 316.954 354.744 317.762 353.754 319.053C352.77 320.355 352.296 321.621 352.338 322.845C352.369 324.064 352.952 325.105 354.088 325.97L370.629 338.491C370.947 338.725 371.135 339.038 371.192 339.428C371.244 339.814 371.161 340.163 370.942 340.47L364.359 349.178C364.135 349.47 363.822 349.642 363.421 349.699C363.03 349.751 362.676 349.663 362.359 349.428L346.484 337.428C342.182 334.178 340.046 330.418 340.088 326.157Z" fill="#FF014F"/>
<path d="M311.258 360.994C310.956 361.228 310.607 361.327 310.216 361.286C309.831 361.244 309.518 361.077 309.279 360.786L304.362 354.64C304.112 354.332 304.008 353.984 304.049 353.598C304.091 353.207 304.268 352.895 304.57 352.661L330.654 331.681C330.961 331.431 331.31 331.327 331.695 331.369C332.086 331.411 332.404 331.582 332.654 331.89L337.341 337.744C337.851 338.369 338.029 339.004 337.862 339.661L334.466 361.744L345.966 352.494C346.268 352.244 346.617 352.14 347.008 352.181C347.409 352.234 347.726 352.411 347.966 352.702L352.903 358.827C353.138 359.129 353.237 359.478 353.195 359.869C353.153 360.254 352.976 360.577 352.674 360.827L328.279 380.431C327.987 380.666 327.648 380.765 327.258 380.723C326.857 380.692 326.539 380.525 326.299 380.223L321.633 374.411C321.174 373.853 320.997 373.254 321.091 372.619L324.216 350.577L311.258 360.994Z" fill="#FF014F"/>
<path d="M292.167 359.329L301.125 355.204C301.417 355.079 301.719 355.069 302.021 355.183C302.312 355.293 302.5 355.439 302.583 355.621C302.667 355.814 302.719 355.965 302.729 356.079L306.312 391.1C306.505 392.293 306.031 393.147 304.896 393.663L291.729 399.725C290.594 400.251 289.641 400.048 288.875 399.121L264.625 373.6C264.542 373.517 264.458 373.376 264.375 373.183C264.292 373.001 264.307 372.756 264.417 372.454C264.531 372.147 264.724 371.933 265 371.808L273.979 367.683C274.979 367.225 275.932 367.433 276.833 368.308L279.562 371.079L291.125 365.767L290.75 361.913C290.682 360.647 291.156 359.788 292.167 359.329ZM286.229 379.246L294.104 387.558L292.958 376.142L286.229 379.246Z" fill="#FF014F"/>
<path d="M253.326 391.304C255.149 392.554 256.264 394.273 256.681 396.471C257.087 398.664 256.66 400.669 255.41 402.492C254.149 404.325 252.425 405.44 250.243 405.846C248.066 406.247 246.066 405.825 244.243 404.575C242.41 403.336 241.295 401.622 240.889 399.429C240.472 397.232 240.899 395.221 242.16 393.388C243.41 391.565 245.128 390.455 247.306 390.054C249.488 389.648 251.493 390.065 253.326 391.304Z" fill="#FF014F"/>
</g>
</svg>
