<svg width="32" height="30" viewBox="0 0 32 30" fill="none" xmlns="http://www.w3.org/2000/svg">
<path d="M21.3704 9.62555C23.6859 9.62555 25.9065 10.5343 27.5437 12.1519C29.181 13.7696 30.1007 15.9635 30.1007 18.2512V28.3144H24.2805V18.2512C24.2805 17.4886 23.9739 16.7573 23.4282 16.2181C22.8824 15.6789 22.1422 15.376 21.3704 15.376C20.5986 15.376 19.8584 15.6789 19.3127 16.2181C18.7669 16.7573 18.4603 17.4886 18.4603 18.2512V28.3144H12.6401V18.2512C12.6401 15.9635 13.5599 13.7696 15.1972 12.1519C16.8344 10.5343 19.055 9.62555 21.3704 9.62555Z" stroke="#FF014F" stroke-width="2" stroke-linecap="round" stroke-linejoin="round"/>
<path d="M6.8202 11.0633H1V28.3146H6.8202V11.0633Z" stroke="#FF014F" stroke-width="2" stroke-linecap="round" stroke-linejoin="round"/>
<path d="M3.9101 6.75042C5.51731 6.75042 6.8202 5.46315 6.8202 3.87521C6.8202 2.28728 5.51731 1 3.9101 1C2.3029 1 1 2.28728 1 3.87521C1 5.46315 2.3029 6.75042 3.9101 6.75042Z" stroke="#FF014F" stroke-width="2" stroke-linecap="round" stroke-linejoin="round"/>
</svg>
