<svg width="100" height="100" viewBox="0 0 100 100" fill="none" xmlns="http://www.w3.org/2000/svg">
<path d="M38.718 81.3019C18.2051 87.651 18.2051 70.7202 10 68.6038M67.4359 94V77.6195C67.5898 75.6012 67.3255 73.5722 66.6606 71.6674C65.9957 69.7627 64.9454 68.0257 63.5795 66.5721C76.4615 65.0907 90 60.0538 90 36.9433C89.999 31.0337 87.7957 25.3508 83.8462 21.0707C85.7163 15.9005 85.5841 10.1857 83.4769 5.11341C83.4769 5.11341 78.6359 3.63196 67.4359 11.3778C58.0329 8.74854 48.121 8.74854 38.718 11.3778C27.5179 3.63196 22.6769 5.11341 22.6769 5.11341C20.5697 10.1857 20.4375 15.9005 22.3077 21.0707C18.3287 25.3825 16.1232 31.1168 16.1538 37.0703C16.1538 60.0115 29.6923 65.0484 42.5744 66.6991C41.2246 68.1381 40.1836 69.8542 39.5192 71.7357C38.8548 73.6172 38.5818 75.6219 38.718 77.6195V94" stroke="#FF014F" stroke-width="8" stroke-linecap="round" stroke-linejoin="round"/>
</svg>
