<svg width="1440" height="774" viewBox="0 0 1440 774" fill="none" xmlns="http://www.w3.org/2000/svg">
<g clip-path="url(#clip0_2085_343)">
<rect y="412" width="1440" height="446" fill="#101010"/>
<g filter="url(#filter0_f_2085_343)">
<rect x="-86" y="289" width="1612" height="246" fill="#101010"/>
</g>
<circle cx="720" cy="400" r="400" fill="#FF014F"/>
<g filter="url(#filter1_f_2085_343)">
<path d="M341 516.566C749 1042.07 1122 496.066 1092 516.566" stroke="#101010" stroke-opacity="0.8" stroke-width="100" stroke-linecap="round"/>
</g>
<g filter="url(#filter2_f_2085_343)">
<path d="M341 516.566C749 1042.07 1122 496.066 1092 516.566" stroke="#101010" stroke-opacity="0.5" stroke-width="100" stroke-linecap="round"/>
</g>
<g filter="url(#filter3_f_2085_343)">
<path d="M364 598.316C772.212 891.236 1098.1 586.889 1068.08 598.316" stroke="#101010" stroke-opacity="0.9" stroke-width="100" stroke-linecap="round"/>
</g>
<g filter="url(#filter4_f_2085_343)">
<path d="M364 598.212C772.212 795.018 1098.1 590.535 1068.08 598.212" stroke="#101010" stroke-opacity="0.9" stroke-width="100" stroke-linecap="round"/>
</g>
<g filter="url(#filter5_f_2085_343)">
<path d="M284 478.281C795.711 739.163 1204.22 468.104 1166.59 478.281" stroke="#101010" stroke-opacity="0.9" stroke-width="100" stroke-linecap="round"/>
</g>
<g filter="url(#filter6_f_2085_343)">
<path d="M1064 320C1064 513.3 907.3 670 714 670C520.7 670 364 513.3 364 320H1064Z" fill="url(#paint0_linear_2085_343)"/>
</g>
<g filter="url(#filter7_f_2085_343)">
<path d="M269 585.619C798.057 1160.02 1220.41 563.212 1181.51 585.619" stroke="#101010" stroke-opacity="0.9" stroke-width="100" stroke-linecap="round"/>
</g>
<g filter="url(#filter8_f_2085_343)">
<path d="M269 620.38C798.057 972.799 1220.41 606.632 1181.51 620.38" stroke="#101010" stroke-opacity="0.9" stroke-width="100" stroke-linecap="round"/>
</g>
<g filter="url(#filter9_f_2085_343)">
<path d="M341 585.397C778.123 953.836 1127.09 571.024 1094.94 585.397" stroke="#101010" stroke-opacity="0.9" stroke-width="100" stroke-linecap="round"/>
</g>
<g filter="url(#filter10_f_2085_343)">
<path d="M254 567.392C783.057 931.254 1205.41 553.198 1166.51 567.392" stroke="#101010" stroke-opacity="0.9" stroke-width="100" stroke-linecap="round"/>
</g>
<g filter="url(#filter11_f_2085_343)">
<path d="M254 567.392C783.057 931.254 1205.41 553.198 1166.51 567.392" stroke="#101010" stroke-opacity="0.9" stroke-width="100" stroke-linecap="round"/>
</g>
<g filter="url(#filter12_f_2085_343)">
<path d="M409 412.427C776.738 808.326 1070.31 396.983 1043.27 412.427" stroke="#FF0250" stroke-width="100" stroke-linecap="round"/>
</g>
<g opacity="0.9" filter="url(#filter13_f_2085_343)">
<path d="M1218 828C1218 625.311 1002.2 461 736 461C469.799 461 254 625.311 254 828C254 1030.69 469.799 1195 736 1195C1002.2 1195 1218 1030.69 1218 828Z" fill="url(#paint1_linear_2085_343)"/>
</g>
<g opacity="0.9" filter="url(#filter14_f_2085_343)">
<path d="M1218 923.5C1218 668.068 1002.2 461 736 461C469.799 461 254 668.068 254 923.5C254 1178.93 469.799 1386 736 1386C1002.2 1386 1218 1178.93 1218 923.5Z" fill="url(#paint2_linear_2085_343)"/>
</g>
<g opacity="0.9" filter="url(#filter15_f_2085_343)">
<path d="M1071 515C1071 363.122 918.105 240 729.5 240C540.895 240 388 363.122 388 515C388 666.878 540.895 790 729.5 790C918.105 790 1071 666.878 1071 515Z" fill="url(#paint3_linear_2085_343)" fill-opacity="0.7"/>
</g>
<g opacity="0.9" filter="url(#filter16_f_2085_343)">
<path d="M1146.64 477C1309.1 592.007 1414 773.924 1414 978.665C1414 1326.44 1111.34 1608.36 738 1608.36C364.656 1608.36 62.0002 1326.44 62 978.665C62 785.108 155.752 611.95 303.262 496.438C379.398 581.975 536.15 640.665 717.164 640.665C911.587 640.665 1078.02 572.958 1146.64 477Z" fill="#101010" fill-opacity="0.25"/>
</g>
<g opacity="0.9" filter="url(#filter17_f_2085_343)">
<path d="M1194 978.5C1194 723.068 978.201 516 712 516C445.799 516 230 723.068 230 978.5C230 1233.93 445.799 1441 712 1441C978.201 1441 1194 1233.93 1194 978.5Z" fill="url(#paint4_linear_2085_343)" fill-opacity="0.4"/>
</g>
<g filter="url(#filter18_f_2085_343)">
<ellipse cx="724" cy="492" rx="383" ry="223" fill="#FF014F" fill-opacity="0.3"/>
</g>
<g opacity="0.9" filter="url(#filter19_f_2085_343)">
<path d="M1092.68 226C1309.72 345.067 1456 569.445 1456 826.63C1456 1208.42 1133.65 1517.92 736 1517.92C338.355 1517.92 16 1208.42 16 826.63C16 587.641 142.313 376.979 334.338 252.825C323.707 288.812 318 326.911 318 366.344C318 587.258 497.086 766.344 718 766.344C938.914 766.344 1118 587.258 1118 366.344C1118 316.961 1109.05 269.669 1092.68 226Z" fill="#101010" fill-opacity="0.6"/>
</g>
</g>
<defs>
<filter id="filter0_f_2085_343" x="-211" y="164" width="1862" height="496" filterUnits="userSpaceOnUse" color-interpolation-filters="sRGB">
<feFlood flood-opacity="0" result="BackgroundImageFix"/>
<feBlend mode="normal" in="SourceGraphic" in2="BackgroundImageFix" result="shape"/>
<feGaussianBlur stdDeviation="62.5" result="effect1_foregroundBlur_2085_343"/>
</filter>
<filter id="filter1_f_2085_343" x="190.998" y="366.003" width="1052.69" height="529.639" filterUnits="userSpaceOnUse" color-interpolation-filters="sRGB">
<feFlood flood-opacity="0" result="BackgroundImageFix"/>
<feBlend mode="normal" in="SourceGraphic" in2="BackgroundImageFix" result="shape"/>
<feGaussianBlur stdDeviation="50" result="effect1_foregroundBlur_2085_343"/>
</filter>
<filter id="filter2_f_2085_343" x="-9.00195" y="166.003" width="1452.69" height="929.639" filterUnits="userSpaceOnUse" color-interpolation-filters="sRGB">
<feFlood flood-opacity="0" result="BackgroundImageFix"/>
<feBlend mode="normal" in="SourceGraphic" in2="BackgroundImageFix" result="shape"/>
<feGaussianBlur stdDeviation="150" result="effect1_foregroundBlur_2085_343"/>
</filter>
<filter id="filter3_f_2085_343" x="113.996" y="348.005" width="1205.96" height="627.983" filterUnits="userSpaceOnUse" color-interpolation-filters="sRGB">
<feFlood flood-opacity="0" result="BackgroundImageFix"/>
<feBlend mode="normal" in="SourceGraphic" in2="BackgroundImageFix" result="shape"/>
<feGaussianBlur stdDeviation="100" result="effect1_foregroundBlur_2085_343"/>
</filter>
<filter id="filter4_f_2085_343" x="113.988" y="347.984" width="1206.01" height="586.012" filterUnits="userSpaceOnUse" color-interpolation-filters="sRGB">
<feFlood flood-opacity="0" result="BackgroundImageFix"/>
<feBlend mode="normal" in="SourceGraphic" in2="BackgroundImageFix" result="shape"/>
<feGaussianBlur stdDeviation="100" result="effect1_foregroundBlur_2085_343"/>
</filter>
<filter id="filter5_f_2085_343" x="-16.0107" y="177.986" width="1485.01" height="714.009" filterUnits="userSpaceOnUse" color-interpolation-filters="sRGB">
<feFlood flood-opacity="0" result="BackgroundImageFix"/>
<feBlend mode="normal" in="SourceGraphic" in2="BackgroundImageFix" result="shape"/>
<feGaussianBlur stdDeviation="125" result="effect1_foregroundBlur_2085_343"/>
</filter>
<filter id="filter6_f_2085_343" x="114" y="70" width="1200" height="850" filterUnits="userSpaceOnUse" color-interpolation-filters="sRGB">
<feFlood flood-opacity="0" result="BackgroundImageFix"/>
<feBlend mode="normal" in="SourceGraphic" in2="BackgroundImageFix" result="shape"/>
<feGaussianBlur stdDeviation="125" result="effect1_foregroundBlur_2085_343"/>
</filter>
<filter id="filter7_f_2085_343" x="19" y="335.046" width="1415" height="750.959" filterUnits="userSpaceOnUse" color-interpolation-filters="sRGB">
<feFlood flood-opacity="0" result="BackgroundImageFix"/>
<feBlend mode="normal" in="SourceGraphic" in2="BackgroundImageFix" result="shape"/>
<feGaussianBlur stdDeviation="100" result="effect1_foregroundBlur_2085_343"/>
</filter>
<filter id="filter8_f_2085_343" x="18.9951" y="369.999" width="1414.95" height="653.991" filterUnits="userSpaceOnUse" color-interpolation-filters="sRGB">
<feFlood flood-opacity="0" result="BackgroundImageFix"/>
<feBlend mode="normal" in="SourceGraphic" in2="BackgroundImageFix" result="shape"/>
<feGaussianBlur stdDeviation="100" result="effect1_foregroundBlur_2085_343"/>
</filter>
<filter id="filter9_f_2085_343" x="265.999" y="510.021" width="905.982" height="310.966" filterUnits="userSpaceOnUse" color-interpolation-filters="sRGB">
<feFlood flood-opacity="0" result="BackgroundImageFix"/>
<feBlend mode="normal" in="SourceGraphic" in2="BackgroundImageFix" result="shape"/>
<feGaussianBlur stdDeviation="12.5" result="effect1_foregroundBlur_2085_343"/>
</filter>
<filter id="filter10_f_2085_343" x="3.99512" y="317.002" width="1414.96" height="658.987" filterUnits="userSpaceOnUse" color-interpolation-filters="sRGB">
<feFlood flood-opacity="0" result="BackgroundImageFix"/>
<feBlend mode="normal" in="SourceGraphic" in2="BackgroundImageFix" result="shape"/>
<feGaussianBlur stdDeviation="100" result="effect1_foregroundBlur_2085_343"/>
</filter>
<filter id="filter11_f_2085_343" x="3.99512" y="317.002" width="1414.96" height="658.987" filterUnits="userSpaceOnUse" color-interpolation-filters="sRGB">
<feFlood flood-opacity="0" result="BackgroundImageFix"/>
<feBlend mode="normal" in="SourceGraphic" in2="BackgroundImageFix" result="shape"/>
<feGaussianBlur stdDeviation="100" result="effect1_foregroundBlur_2085_343"/>
</filter>
<filter id="filter12_f_2085_343" x="259" y="262.046" width="936.004" height="472.959" filterUnits="userSpaceOnUse" color-interpolation-filters="sRGB">
<feFlood flood-opacity="0" result="BackgroundImageFix"/>
<feBlend mode="normal" in="SourceGraphic" in2="BackgroundImageFix" result="shape"/>
<feGaussianBlur stdDeviation="50" result="effect1_foregroundBlur_2085_343"/>
</filter>
<filter id="filter13_f_2085_343" x="-146" y="61" width="1764" height="1534" filterUnits="userSpaceOnUse" color-interpolation-filters="sRGB">
<feFlood flood-opacity="0" result="BackgroundImageFix"/>
<feBlend mode="normal" in="SourceGraphic" in2="BackgroundImageFix" result="shape"/>
<feGaussianBlur stdDeviation="200" result="effect1_foregroundBlur_2085_343"/>
</filter>
<filter id="filter14_f_2085_343" x="-146" y="61" width="1764" height="1725" filterUnits="userSpaceOnUse" color-interpolation-filters="sRGB">
<feFlood flood-opacity="0" result="BackgroundImageFix"/>
<feBlend mode="normal" in="SourceGraphic" in2="BackgroundImageFix" result="shape"/>
<feGaussianBlur stdDeviation="200" result="effect1_foregroundBlur_2085_343"/>
</filter>
<filter id="filter15_f_2085_343" x="188" y="40" width="1083" height="950" filterUnits="userSpaceOnUse" color-interpolation-filters="sRGB">
<feFlood flood-opacity="0" result="BackgroundImageFix"/>
<feBlend mode="normal" in="SourceGraphic" in2="BackgroundImageFix" result="shape"/>
<feGaussianBlur stdDeviation="100" result="effect1_foregroundBlur_2085_343"/>
</filter>
<filter id="filter16_f_2085_343" x="-38" y="377" width="1552" height="1331.36" filterUnits="userSpaceOnUse" color-interpolation-filters="sRGB">
<feFlood flood-opacity="0" result="BackgroundImageFix"/>
<feBlend mode="normal" in="SourceGraphic" in2="BackgroundImageFix" result="shape"/>
<feGaussianBlur stdDeviation="50" result="effect1_foregroundBlur_2085_343"/>
</filter>
<filter id="filter17_f_2085_343" x="-170" y="116" width="1764" height="1725" filterUnits="userSpaceOnUse" color-interpolation-filters="sRGB">
<feFlood flood-opacity="0" result="BackgroundImageFix"/>
<feBlend mode="normal" in="SourceGraphic" in2="BackgroundImageFix" result="shape"/>
<feGaussianBlur stdDeviation="200" result="effect1_foregroundBlur_2085_343"/>
</filter>
<filter id="filter18_f_2085_343" x="191" y="119" width="1066" height="746" filterUnits="userSpaceOnUse" color-interpolation-filters="sRGB">
<feFlood flood-opacity="0" result="BackgroundImageFix"/>
<feBlend mode="normal" in="SourceGraphic" in2="BackgroundImageFix" result="shape"/>
<feGaussianBlur stdDeviation="75" result="effect1_foregroundBlur_2085_343"/>
</filter>
<filter id="filter19_f_2085_343" x="-134" y="76" width="1740" height="1591.92" filterUnits="userSpaceOnUse" color-interpolation-filters="sRGB">
<feFlood flood-opacity="0" result="BackgroundImageFix"/>
<feBlend mode="normal" in="SourceGraphic" in2="BackgroundImageFix" result="shape"/>
<feGaussianBlur stdDeviation="75" result="effect1_foregroundBlur_2085_343"/>
</filter>
<linearGradient id="paint0_linear_2085_343" x1="714" y1="-30" x2="714" y2="670" gradientUnits="userSpaceOnUse">
<stop stop-color="#FF014F"/>
</linearGradient>
<linearGradient id="paint1_linear_2085_343" x1="736" y1="1195" x2="736" y2="461" gradientUnits="userSpaceOnUse">
<stop stop-color="#FF014F"/>
</linearGradient>
<linearGradient id="paint2_linear_2085_343" x1="736" y1="1386" x2="736" y2="461" gradientUnits="userSpaceOnUse">
<stop stop-color="#FF014F"/>
</linearGradient>
<linearGradient id="paint3_linear_2085_343" x1="729.5" y1="790" x2="729.5" y2="240" gradientUnits="userSpaceOnUse">
<stop stop-color="#FF014F"/>
</linearGradient>
<linearGradient id="paint4_linear_2085_343" x1="712" y1="1441" x2="712" y2="516" gradientUnits="userSpaceOnUse">
<stop stop-color="#FF014F"/>
</linearGradient>
<clipPath id="clip0_2085_343">
<rect width="1440" height="774" fill="white"/>
</clipPath>
</defs>
</svg>
