<svg width="32" height="35" viewBox="0 0 32 35" fill="none" xmlns="http://www.w3.org/2000/svg">
<path d="M11.4468 28.4439C3.98496 30.7275 3.98496 24.6379 1.00024 23.8767M21.8933 33.0111V27.1194C21.9493 26.3935 21.8531 25.6637 21.6113 24.9786C21.3694 24.2935 20.9873 23.6688 20.4905 23.146C25.1765 22.6132 30.1013 20.8015 30.1013 12.4892C30.1009 10.3637 29.2994 8.31967 27.8627 6.78023C28.543 4.92063 28.4949 2.86515 27.7284 1.04079C27.7284 1.04079 25.9674 0.507951 21.8933 3.29394C18.4728 2.34826 14.8672 2.34826 11.4468 3.29394C7.37262 0.507951 5.61164 1.04079 5.61164 1.04079C4.84512 2.86515 4.79702 4.92063 5.47732 6.78023C4.02992 8.33109 3.22763 10.3936 3.23878 12.5349C3.23878 20.7863 8.16357 22.5979 12.8496 23.1917C12.3586 23.7092 11.9799 24.3265 11.7382 25.0032C11.4965 25.6799 11.3972 26.401 11.4468 27.1194V33.0111" stroke="#FF014F" stroke-width="2" stroke-linecap="round" stroke-linejoin="round"/>
</svg>
